<svg xmlns="http://www.w3.org/2000/svg" xmlns:xlink="http://www.w3.org/1999/xlink" width="328" height="41" viewBox="0 0 328 41">
  <defs>
    <path id="logo-a" d="M21.2234883,40.9206452 L19.7399624,40.9206452 C18.9276384,40.7456434 18.167529,40.2793868 17.6339677,39.5213548 L15.7651613,36.8669355 C14.9835161,35.7586129 13.6318387,35.203129 12.2973548,35.4438387 L9.10332258,36.0204839 C6.72135484,36.4503226 4.63829032,34.3804839 5.05225806,31.995871 L5.60906452,28.797871 C5.84051613,27.4620645 5.27709677,26.1130323 4.16348387,25.3406452 L1.49716129,23.4890323 C0.728663665,22.9557368 0.255883202,22.1895839 0.0793548387,21.3698545 L0.0793548387,19.8858799 C0.254356629,19.0733164 0.720613196,18.3130129 1.47864516,17.7794516 L4.13306452,15.9106452 C5.2413871,15.1303226 5.79687097,13.7786452 5.55616129,12.4441613 L4.97951613,9.25012903 C4.54967742,6.86816129 6.61951613,4.78509677 9.00280645,5.19906452 L12.202129,5.75454839 C13.5379355,5.98732258 14.8869677,5.42390323 15.6593548,4.31029032 L17.5109677,1.64264516 C18.1926322,0.660996094 19.254745,0.161851213 20.3229004,0.146806452 L20.422491,0.146806452 C21.4827295,0.16174002 22.537458,0.653660664 23.2205484,1.62412903 L25.0880323,4.27987097 C25.8696774,5.38819355 27.2213548,5.94235484 28.5558387,5.70164516 L31.749871,5.12632258 C34.1318387,4.69648387 36.2149032,6.76632258 35.8009355,9.1496129 L35.244129,12.3489355 C35.0126774,13.6834194 35.5760968,15.0324516 36.6897097,15.8061613 L39.3573548,17.6577742 C41.343871,19.0372258 41.3544516,21.9733548 39.3745484,23.3660323 L36.720129,25.2348387 C35.6118065,26.0151613 35.0576452,27.3681613 35.2970323,28.7013226 L35.8736774,31.8966774 C36.3035161,34.2786452 34.2336774,36.3617097 31.8503871,35.9464194 L28.6510645,35.3909355 C27.3165806,35.1594839 25.9675484,35.7229032 25.1938387,36.8365161 L23.3422258,39.5028387 C22.8089304,40.2713363 22.0429751,40.7441168 21.2234882,40.9206452 Z M24.5484194,22.2021613 L31.6453871,20.3915484 L24.4941935,18.8110645 L27.1896129,13.5829032 L22.0566774,16.4515806 L20.2447419,9.3546129 L18.6642581,16.5058065 L13.3051613,13.6556452 L16.3047742,18.9433226 L9.20780645,20.7552581 L16.3603226,22.3357419 L13.6305161,27.5480323 L18.7978387,24.6952258 L20.6084516,31.790871 L22.1889355,24.6396774 L27.4369355,27.429 L24.5484194,22.2021613 Z"/>
  </defs>
  <g fill="none" fill-rule="evenodd">
    <path fill="#FFF" d="M54.8648649 19.729263L54.8648649 19.6436598C54.8648649 11.0606063 59.5856053 5.54054054 67.4970335 5.54054054 72.0489406 5.54054054 74.4732828 7.00649452 75.7909748 8.38684534L75.7909748 12.4837587C74.132978 11.2759517 71.6229 10.197887 68.390004 10.197887 63.2010146 10.197887 60.6065199 13.1311325 60.6065199 18.4358528L60.6065199 20.4635775C60.6065199 26.9761048 63.6270551 29.9949534 68.8160445 29.9949534 71.3683309 29.9949534 74.3875471 28.9596903 75.9189189 27.5365379L75.9189189 31.3325027C74.5999079 32.8425958 72.0067322 34.3513514 67.9230741 34.3513514 60.13959 34.3513514 54.8648649 29.0894326 54.8648649 19.729263M91.3584713 25.9640659L91.3584713 23.1395558C90.6411136 23.7473106 89.5428234 24.2688208 88.3607541 24.7472087 85.7439696 25.7471068 84.6888779 26.4855761 84.6888779 28.1363512L84.6888779 28.3533103C84.6888779 30.0930252 85.6601906 31.0484534 87.516419 31.0484534 89.5009339 31.0484534 91.3584713 29.2669638 91.3584713 25.9640659zM79.2432432 28.6578614L79.2432432 28.6147391C79.2432432 24.0949841 83.0852956 23.1826781 87.348861 22.18278 90.3033796 21.4456584 91.3584713 20.9241482 91.3584713 19.4889844L91.3584713 19.3596176C91.3584713 17.8813315 90.3033796 16.7089443 87.1786849 16.7089443 84.1403873 16.7089443 81.5654922 18.012046 80.5090915 18.7936375L80.5090915 15.2737805C81.5222937 14.0138011 83.9283217 12.1891892 88.3607541 12.1891892 94.2711004 12.1891892 96.6771284 15.404495 96.6771284 20.6627193L96.6771284 28.0069844C96.6771284 32.6561063 96.972973 33.7853713 96.972973 33.7853713L92.3716735 33.7853713C92.3716735 33.7853713 91.5692278 32.1345961 91.4435593 29.9623107 90.6411136 32.829943 88.3607541 34.3513514 85.195479 34.3513514 81.6924698 34.3513514 79.2432432 32.0914738 79.2432432 28.6578614zM101.405405 12.6976079L105.625268 12.6976079C105.625268 12.6976079 106.626481 14.9007559 106.626481 17.568969L106.626481 17.9933082C107.420458 14.3923371 110.093814 12.1891892 113.728232 12.1891892 117.695524 12.1891892 120.243243 14.56181 120.243243 19.4331711L120.243243 33.2432432 114.98072 33.2432432 114.98072 19.6880373C114.98072 17.3574563 113.852574 16.298579 111.597577 16.298579 108.798583 16.298579 106.710671 18.3742938 106.710671 22.1447378L106.710671 33.2432432 101.405405 33.2432432 101.405405 12.6976079M124.675676 12.6976079L128.894533 12.6976079C128.894533 12.6976079 129.89711 14.9007559 129.89711 17.568969L129.89711 17.9933082C130.691141 14.3923371 133.363386 12.1891892 136.998054 12.1891892 140.965619 12.1891892 143.513514 14.56181 143.513514 19.4331711L143.513514 33.2432432 138.250629 33.2432432 138.250629 19.6880373C138.250629 17.3574563 137.1237 16.298579 134.867253 16.298579 132.069362 16.298579 129.980011 18.3742938 129.980011 22.1447378L129.980011 33.2432432 124.675676 33.2432432 124.675676 12.6976079M161.169282 25.9640659L161.169282 23.1395558C160.451924 23.7473106 159.353634 24.2688208 158.171565 24.7472087 155.55478 25.7471068 154.499689 26.4855761 154.499689 28.1363512L154.499689 28.3533103C154.499689 30.0930252 155.469692 31.0484534 157.32723 31.0484534 159.311745 31.0484534 161.169282 29.2669638 161.169282 25.9640659zM149.054054 28.6578614L149.054054 28.6147391C149.054054 24.0949841 152.896106 23.1826781 157.159672 22.18278 160.11419 21.4456584 161.169282 20.9241482 161.169282 19.4889844L161.169282 19.3596176C161.169282 17.8813315 160.11419 16.7089443 156.989496 16.7089443 153.951198 16.7089443 151.376303 18.012046 150.319902 18.7936375L150.319902 15.2737805C151.333105 14.0138011 153.739133 12.1891892 158.171565 12.1891892 164.081911 12.1891892 166.487939 15.404495 166.487939 20.6627193L166.487939 28.0069844C166.487939 32.6561063 166.783784 33.7853713 166.783784 33.7853713L162.182484 33.7853713C162.182484 33.7853713 161.380039 32.1345961 161.253061 29.9623107 160.451924 32.829943 158.171565 34.3513514 155.00629 34.3513514 151.501972 34.3513514 149.054054 32.0914738 149.054054 28.6578614zM181.025025 19.8464131C185.898318 19.8464131 187.464497 17.6800161 187.464497 14.211406 187.464497 10.8734131 186.02806 8.74791637 181.765088 8.74791637L176.109367 8.74791637 176.109367 19.8464131 181.025025 19.8464131zM172.324324 5.54054054L182.200652 5.54054054C188.203235 5.54054054 191.162162 8.87853348 191.162162 14.254945 191.162162 19.8464131 187.725306 22.8822715 181.46059 22.8822715L176.109367 22.8822715 176.109367 33.2432432 172.324324 33.2432432 172.324324 5.54054054z"/>
    <polygon fill="#FFF" points="195.595 33.243 198.919 33.243 198.919 4.432 195.595 4.432"/>
    <path fill="#FFF" d="M217.275426 25.60077L217.275426 22.4787167C216.356957 23.2709394 214.826176 23.8423568 213.339322 24.3696131 209.447144 25.7332531 208.221188 26.5682987 208.221188 28.3280501L208.221188 28.5475172C208.221188 30.6578807 209.48974 31.8020537 211.982916 31.8020537 214.563947 31.8020537 217.275426 29.6020298 217.275426 25.60077zM204.459459 28.6786622L204.459459 28.6345011C204.459459 24.0618239 208.615198 23.0942951 213.033165 22.0826053 216.400884 21.2917209 217.275426 20.6761424 217.275426 18.8294071L217.275426 18.741085C217.275426 16.8943496 215.832498 15.3554035 212.595229 15.3554035 209.48974 15.3554035 206.864783 16.7632047 205.771938 17.6865723L205.771938 15.0476143C206.77826 13.8164574 209.315364 12.1891892 213.121019 12.1891892 218.543978 12.1891892 220.905374 15.2242586 220.949301 20.0164029L220.949301 28.1955669C220.949301 32.5487771 221.081081 33.779934 221.081081 33.779934L218.149968 33.779934C218.149968 33.779934 217.319353 31.8890376 217.275426 29.6461909 216.444811 32.8124052 213.995561 34.3513514 210.670438 34.3513514 206.996563 34.3513514 204.459459 32.1526657 204.459459 28.6786622zM225.513514 12.7033393L228.274184 12.7033393C228.274184 12.7033393 229.136648 15.1488145 229.136648 17.7208698L229.136648 18.3211465C229.827144 14.3332211 233.019703 12.1891892 236.556197 12.1891892 240.569212 12.1891892 243.243243 14.5472328 243.243243 19.2215617L243.243243 33.2432432 239.620109 33.2432432 239.620109 18.6643482C239.620109 16.3049997 238.282437 15.1905729 235.565086 15.1905729 231.983959 15.1905729 229.136648 17.5929848 229.136648 21.8797436L229.136648 33.2432432 225.513514 33.2432432 225.513514 12.7033393M248.783784 12.7033393L251.544659 12.7033393C251.544659 12.7033393 252.407187 15.1488145 252.407187 17.7208698L252.407187 18.3211465C253.097734 14.3332211 256.290529 12.1891892 259.827285 12.1891892 263.839285 12.1891892 266.513514 14.5472328 266.513514 19.2215617L266.513514 33.2432432 262.890111 33.2432432 262.890111 18.6643482C262.890111 16.3049997 261.55234 15.1905729 258.834788 15.1905729 255.254708 15.1905729 252.407187 17.5929848 252.407187 21.8797436L252.407187 33.2432432 248.783784 33.2432432 248.783784 12.7033393M274.568025 21.8145138L285.475276 21.8145138 285.475276 21.3724798C285.475276 16.8688382 283.284853 14.883044 280.380526 14.883044 277.00966 14.883044 274.651335 17.442542 274.568025 21.8145138zM274.568025 24.1536665C274.693631 29.5400326 277.178844 31.4384949 281.642998 31.4384949 284.465297 31.4384949 286.949228 30.5544268 288.128391 29.7160401L288.128391 32.1008741C287.328611 33.2039439 284.84468 34.3513514 281.222601 34.3513514 275.031999 34.3513514 270.945946 30.3784193 270.945946 23.2266043L270.945946 23.1822665C270.945946 16.7371685 274.693631 12.1891892 280.380526 12.1891892 286.401943 12.1891892 288.675676 16.5154797 288.675676 21.1077968 288.675676 22.122191 288.592365 23.1379288 288.382167 24.1536665L274.568025 24.1536665zM294.216216 12.4911103L296.93351 12.4911103C296.93351 12.4911103 297.782422 14.9618535 297.782422 17.5604846L297.782422 18.9461575C298.589987 14.1813412 301.136723 12.1891892 303.344929 12.1891892 304.576303 12.1891892 304.958766 12.5346186 305.297297 13.0118913L305.297297 15.5248243C300.458369 15.5248243 297.782422 17.6475012 297.782422 24.3622796L297.782422 33.2432432 294.216216 33.2432432 294.216216 12.4911103M307.513514 32.0565364L307.513514 29.3196874C309.519852 30.5544268 311.126008 31.4384949 314.691023 31.4384949 317.812446 31.4384949 319.505421 30.4670949 319.505421 28.0836044 319.505421 27.0235288 319.282947 26.0964666 318.167863 25.5227628 316.607829 24.7273703 312.998048 24.6400383 310.857411 23.5799628 308.851072 22.6085628 307.826877 21.2394665 307.826877 18.4582797 307.826877 14.2206647 311.214184 12.1891892 315.582277 12.1891892 318.257395 12.1891892 320.620506 12.940244 321.867176 13.9559817L321.867176 16.5598175C320.441441 15.8101063 318.345571 15.1033892 315.93905 15.1033892 313.487763 15.1033892 311.214184 15.8101063 311.214184 18.2822723 311.214184 19.3410042 311.52619 20.1807345 312.639919 20.7101005 315.135972 21.8588516 318.212629 21.6815005 320.307143 22.828908 321.956709 23.7129761 323.027027 25.1250666 323.027027 27.9062533 323.027027 32.1895497 319.460655 34.3513514 315.092562 34.3513514 311.436658 34.3513514 309.164436 33.3799513 307.513514 32.0565364"/>
    <g transform="translate(5)">
      <mask id="logo-b" fill="#fff">
        <use xlink:href="#logo-a"/>
      </mask>
      <polygon fill="#FFF" points=".079 40.921 318.885 40.921 318.885 .147 .079 .147" mask="url(#logo-b)"/>
    </g>
  </g>
</svg>
