<?xml version="1.0" encoding="UTF-8"?> <svg xmlns="http://www.w3.org/2000/svg" xmlns:xlink="http://www.w3.org/1999/xlink" id="logo" width="264" height="31" viewBox="0 0 264 31"><defs><path id="logo-a" d="M16.0470278,30.94 L14.9253374,30.94 C14.3111413,30.8076816 13.7364244,30.4551461 13.333,29.882 L11.92,27.875 C11.329,27.037 10.307,26.617 9.298,26.799 L6.883,27.235 C5.082,27.56 3.507,25.995 3.82,24.192 L4.241,21.774 C4.416,20.764 3.99,19.744 3.148,19.16 L1.132,17.76 C0.55094082,17.3567766 0.193472665,16.7774903 0.06,16.1576949 L0.06,15.0356653 C0.192318427,14.421288 0.54485388,13.8464244 1.118,13.443 L3.125,12.03 C3.963,11.44 4.383,10.418 4.201,9.409 L3.765,6.994 C3.44,5.193 5.005,3.618 6.807,3.931 L9.226,4.351 C10.236,4.527 11.256,4.101 11.84,3.259 L13.24,1.242 C13.7554048,0.499777534 14.5584657,0.122375307 15.3660954,0.111 L15.4413956,0.111 C16.2430394,0.122291235 17.040517,0.494231234 17.557,1.228 L18.969,3.236 C19.56,4.074 20.582,4.493 21.591,4.311 L24.006,3.876 C25.807,3.551 27.382,5.116 27.069,6.918 L26.648,9.337 C26.473,10.346 26.899,11.366 27.741,11.951 L29.758,13.351 C31.26,14.394 31.268,16.614 29.771,17.667 L27.764,19.08 C26.926,19.67 26.507,20.693 26.688,21.701 L27.124,24.117 C27.449,25.918 25.884,27.493 24.082,27.179 L21.663,26.759 C20.654,26.584 19.634,27.01 19.049,27.852 L17.649,29.868 C17.2457766,30.4490592 16.6666397,30.8065273 16.0470277,30.94 Z"></path></defs><g fill="none" fill-rule="evenodd"><path id="logo-text" fill="#383F3D" d="M59.4032041,20.0837838 C58.8427992,22.0657757 57.8020629,23.5472924 56.2809639,24.5283784 C54.7598649,25.5094644 52.9085552,26 50.726979,26 C48.725533,26 46.9943081,25.5986527 45.5332526,24.7959459 C44.072197,23.9932392 42.951404,22.8337914 42.1708401,21.3175676 C41.3902761,19.8013438 41,17.9928033 41,15.8918919 C41,13.8108004 41.3902761,12.0072148 42.1708401,10.4810811 C42.951404,8.95494732 44.072197,7.79054455 45.5332526,6.98783784 C46.9943081,6.18513112 48.7155259,5.78378378 50.6969575,5.78378378 C52.8585192,5.78378378 54.6898148,6.23468018 56.1908993,7.13648649 C57.6919838,8.0382928 58.6826847,9.39098197 59.1630318,11.1945946 L54.6297792,13.0081081 C54.3495768,11.818913 53.9192723,10.9864889 53.338853,10.5108108 C52.7584336,10.0351328 51.9378531,9.7972973 50.8770867,9.7972973 C49.4160311,9.7972973 48.2852311,10.3175624 47.4846527,11.3581081 C46.6840743,12.3986539 46.2837911,13.9099 46.2837911,15.8918919 C46.2837911,17.8738838 46.6690636,19.3851299 47.4396204,20.4256757 C48.2101771,21.4662214 49.3259665,21.9864865 50.7870221,21.9864865 C51.8878174,21.9864865 52.7584333,21.7288314 53.3988961,21.2135135 C54.0393588,20.6981956 54.4796703,19.8855911 54.7198438,18.7756757 L59.4032041,20.0837838 Z M77.4261353,22.8189189 C77.8064101,22.8189189 78.1166296,22.7792797 78.3568031,22.7 L77.9665231,25.5243243 C77.3861037,25.841443 76.7056223,26 75.9250583,26 C73.7634966,26 72.4725833,25.2369446 72.0522797,23.7108108 C71.151629,25.2369446 69.3703687,26 66.7084455,26 C65.207361,26 64.0565468,25.6828861 63.2559684,25.0486486 C62.45539,24.4144112 62.0551068,23.4927988 62.0551068,22.2837838 C62.0551068,21.015309 62.5104289,19.9896436 63.4210869,19.2067568 C64.3317448,18.42387 65.8278033,17.8243264 67.9093071,17.4081081 L71.3017412,16.7540541 L71.3017412,16.2189189 C71.3017412,15.5450417 71.1116066,15.0099119 70.7313319,14.6135135 C70.3510572,14.2171151 69.830689,14.0189189 69.1702118,14.0189189 C68.4096623,14.0189189 67.7892234,14.1972955 67.3088763,14.5540541 C66.8285293,14.9108126 66.5183098,15.4954914 66.3782086,16.3081081 L62.235236,15.1189189 C62.495424,13.6720648 63.2159338,12.5473013 64.3967869,11.7445946 C65.5776401,10.9418879 67.1687658,10.5405405 69.1702118,10.5405405 C71.5119036,10.5405405 73.2931639,11.0162115 74.514046,11.9675676 C75.734928,12.9189237 76.3453599,14.3459364 76.3453599,16.2486486 L76.3453599,21.6594595 C76.3453599,22.4324363 76.7056148,22.8189189 77.4261353,22.8189189 Z M68.569781,22.7297297 C69.2702871,22.7297297 69.9007332,22.5364884 70.461138,22.15 C71.0215429,21.7635116 71.3017412,21.2531563 71.3017412,20.6189189 L71.3017412,19.3405405 L68.8699964,19.9054054 C68.2295337,20.0639648 67.7742115,20.2572061 67.5040163,20.4851351 C67.2338211,20.7130642 67.0987255,21.0351331 67.0987255,21.4513514 C67.0987255,21.8675696 67.2288176,22.1846836 67.4890056,22.4027027 C67.7491935,22.6207218 68.1094484,22.7297297 68.569781,22.7297297 Z M91.2160294,10.5405405 C92.7971718,10.5405405 94.0580639,10.9963918 94.9987435,11.9081081 C95.9394231,12.8198244 96.4097559,14.1180096 96.4097559,15.8027027 L96.4097559,25.7027027 L91.3060941,25.7027027 L91.3060941,17.2 C91.3060941,16.1891841 91.1209631,15.4707229 90.7506956,15.0445946 C90.3804281,14.6184663 89.8550564,14.4054054 89.1745647,14.4054054 C88.3739863,14.4054054 87.7235261,14.687835 87.2231646,15.2527027 C86.7228031,15.8175704 86.4726261,16.6846788 86.4726261,17.8540541 L86.4726261,25.7027027 L81.3689643,25.7027027 L81.3689643,10.8378378 L85.9322384,10.8378378 L86.0823461,13.6918919 C86.5626931,12.6414362 87.2431746,11.8536062 88.1238108,11.3283784 C89.0044471,10.8031505 90.0351763,10.5405405 91.2160294,10.5405405 Z M110.830102,10.5405405 C112.411245,10.5405405 113.672137,10.9963918 114.612816,11.9081081 C115.553496,12.8198244 116.023829,14.1180096 116.023829,15.8027027 L116.023829,25.7027027 L110.920167,25.7027027 L110.920167,17.2 C110.920167,16.1891841 110.735036,15.4707229 110.364768,15.0445946 C109.994501,14.6184663 109.469129,14.4054054 108.788638,14.4054054 C107.988059,14.4054054 107.337599,14.687835 106.837237,15.2527027 C106.336876,15.8175704 106.086699,16.6846788 106.086699,17.8540541 L106.086699,25.7027027 L100.983037,25.7027027 L100.983037,10.8378378 L105.546311,10.8378378 L105.696419,13.6918919 C106.176766,12.6414362 106.857247,11.8536062 107.737884,11.3283784 C108.61852,10.8031505 109.649249,10.5405405 110.830102,10.5405405 Z M135.097514,22.8189189 C135.477789,22.8189189 135.788008,22.7792797 136.028182,22.7 L135.637902,25.5243243 C135.057482,25.841443 134.377001,26 133.596437,26 C131.434875,26 130.143962,25.2369446 129.723658,23.7108108 C128.823008,25.2369446 127.041747,26 124.379824,26 C122.87874,26 121.727925,25.6828861 120.927347,25.0486486 C120.126769,24.4144112 119.726485,23.4927988 119.726485,22.2837838 C119.726485,21.015309 120.181808,19.9896436 121.092465,19.2067568 C122.003123,18.42387 123.499182,17.8243264 125.580686,17.4081081 L128.97312,16.7540541 L128.97312,16.2189189 C128.97312,15.5450417 128.782985,15.0099119 128.40271,14.6135135 C128.022436,14.2171151 127.502068,14.0189189 126.84159,14.0189189 C126.081041,14.0189189 125.460602,14.1972955 124.980255,14.5540541 C124.499908,14.9108126 124.189688,15.4954914 124.049587,16.3081081 L119.906615,15.1189189 C120.166803,13.6720648 120.887312,12.5473013 122.068165,11.7445946 C123.249019,10.9418879 124.840144,10.5405405 126.84159,10.5405405 C129.183282,10.5405405 130.964542,11.0162115 132.185425,11.9675676 C133.406307,12.9189237 134.016738,14.3459364 134.016738,16.2486486 L134.016738,21.6594595 C134.016738,22.4324363 134.376993,22.8189189 135.097514,22.8189189 Z M126.24116,22.7297297 C126.941666,22.7297297 127.572112,22.5364884 128.132517,22.15 C128.692921,21.7635116 128.97312,21.2531563 128.97312,20.6189189 L128.97312,19.3405405 L126.541375,19.9054054 C125.900912,20.0639648 125.44559,20.2572061 125.175395,20.4851351 C124.9052,20.7130642 124.770104,21.0351331 124.770104,21.4513514 C124.770104,21.8675696 124.900196,22.1846836 125.160384,22.4027027 C125.420572,22.6207218 125.780827,22.7297297 126.24116,22.7297297 Z M146.905986,6.08108108 C148.967476,6.08108108 150.603633,6.59143634 151.814508,7.61216216 C153.025383,8.63288799 153.630811,10.0351262 153.630811,11.8189189 C153.630811,13.6027116 153.025383,15.0099048 151.814508,16.0405405 C150.603633,17.0711763 148.967476,17.5864865 146.905986,17.5864865 L141.832346,17.5864865 L141.832346,25.7027027 L140.331269,25.7027027 L140.331269,6.08108108 L146.905986,6.08108108 Z M146.725857,16.1891892 C148.447101,16.1891892 149.763032,15.8126164 150.67369,15.0594595 C151.584348,14.3063025 152.03967,13.2261332 152.03967,11.8189189 C152.03967,10.4315246 151.584348,9.35631012 150.67369,8.59324324 C149.763032,7.83017636 148.447101,7.44864865 146.725857,7.44864865 L141.832346,7.44864865 L141.832346,16.1891892 L146.725857,16.1891892 Z M159.885299,22.1054054 C159.885299,23.0171217 160.030402,23.6612594 160.320611,24.0378378 C160.610821,24.4144163 161.096164,24.6027027 161.776656,24.6027027 C162.176945,24.6027027 162.517186,24.5729733 162.797388,24.5135135 C163.077591,24.4540538 163.397817,24.3450458 163.758078,24.1864865 L163.547927,25.6135135 C162.987522,25.8711725 162.327055,26 161.566505,26 C160.485724,26 159.685158,25.6977508 159.164782,25.0932432 C158.644406,24.4887357 158.384222,23.5423488 158.384222,22.2540541 L158.384222,4 L159.885299,4 L159.885299,22.1054054 Z M179.799587,24.7216216 C180.299949,24.7216216 180.690225,24.6522529 180.970427,24.5135135 L180.880363,25.7027027 C180.520102,25.9009019 180.029755,26 179.409307,26 C178.708801,26 178.138397,25.8117136 177.698079,25.4351351 C177.257761,25.0585567 177.007584,24.4045092 176.947541,23.472973 C176.487208,24.2657697 175.746684,24.8851329 174.725947,25.3310811 C173.705209,25.7770293 172.634452,26 171.513642,26 C170.032572,26 168.846733,25.6729762 167.95609,25.0189189 C167.065446,24.3648616 166.620131,23.4333394 166.620131,22.2243243 C166.620131,19.9252137 168.521476,18.4387421 172.324224,17.7648649 L176.917519,16.9621622 L176.917519,15.6540541 C176.917519,14.4648589 176.562268,13.5333367 175.851755,12.8594595 C175.141241,12.1855822 174.13553,11.8486486 172.83459,11.8486486 C170.452869,11.8486486 168.851736,12.8990886 168.031143,15 L166.890325,14.1675676 C167.330643,12.9981924 168.06116,12.1013545 169.081897,11.477027 C170.102635,10.8526996 171.35352,10.5405405 172.83459,10.5405405 C174.575848,10.5405405 175.941814,10.9617075 176.93253,11.8040541 C177.923246,12.6464006 178.418596,13.8702622 178.418596,15.4756757 L178.418596,23.1459459 C178.418596,24.1964016 178.878922,24.7216216 179.799587,24.7216216 Z M171.66375,24.6918919 C172.504357,24.6918919 173.324938,24.5481996 174.125516,24.2608108 C174.926094,23.973422 175.591565,23.5473001 176.121948,22.9824324 C176.652332,22.4175647 176.917519,21.7387427 176.917519,20.9459459 L176.917519,18.1810811 L172.804568,18.9243243 C171.183397,19.2216231 170.002562,19.6378352 169.262027,20.172973 C168.521492,20.7081108 168.15123,21.3918877 168.15123,22.2243243 C168.15123,23.0171211 168.461449,23.6265744 169.081897,24.0527027 C169.702346,24.478831 170.562954,24.6918919 171.66375,24.6918919 Z M192.058383,10.5405405 C193.779626,10.5405405 195.165607,11.0162115 196.216366,11.9675676 C197.267125,12.9189237 197.792497,14.2864776 197.792497,16.0702703 L197.792497,25.7027027 L196.29142,25.7027027 L196.29142,16.5459459 C196.29142,14.9603524 195.901144,13.7810849 195.12058,13.0081081 C194.340016,12.2351313 193.269258,11.8486486 191.908275,11.8486486 C190.947581,11.8486486 190.056951,12.0666645 189.236358,12.5027027 C188.415765,12.9387409 187.760301,13.5729688 187.269947,14.4054054 C186.779593,15.237842 186.534419,16.2090035 186.534419,17.3189189 L186.534419,25.7027027 L185.033342,25.7027027 L185.033342,10.8378378 L186.384312,10.8378378 L186.444355,13.8405405 C186.924702,12.7702649 187.660222,11.9527055 188.650938,11.3878378 C189.641654,10.8229701 190.777457,10.5405405 192.058383,10.5405405 Z M211.011982,10.5405405 C212.733225,10.5405405 214.119206,11.0162115 215.169965,11.9675676 C216.220724,12.9189237 216.746096,14.2864776 216.746096,16.0702703 L216.746096,25.7027027 L215.245019,25.7027027 L215.245019,16.5459459 C215.245019,14.9603524 214.854743,13.7810849 214.074179,13.0081081 C213.293615,12.2351313 212.222857,11.8486486 210.861874,11.8486486 C209.90118,11.8486486 209.01055,12.0666645 208.189957,12.5027027 C207.369364,12.9387409 206.7139,13.5729688 206.223546,14.4054054 C205.733192,15.237842 205.488018,16.2090035 205.488018,17.3189189 L205.488018,25.7027027 L203.986941,25.7027027 L203.986941,10.8378378 L205.337911,10.8378378 L205.397954,13.8405405 C205.878301,12.7702649 206.613821,11.9527055 207.604537,11.3878378 C208.595253,10.8229701 209.731056,10.5405405 211.011982,10.5405405 Z M235.429501,17.9135135 C235.429501,18.2504521 235.409487,18.5774759 235.369458,18.8945946 L223.450906,18.8945946 C223.550979,20.7180271 224.096365,22.140085 225.08708,23.1608108 C226.077796,24.1815366 227.403734,24.6918919 229.064934,24.6918919 C230.245788,24.6918919 231.261506,24.4540564 232.112121,23.9783784 C232.962735,23.5027003 233.578171,22.8288332 233.958446,21.9567568 L235.21935,22.6108108 C234.658945,23.7009064 233.858379,24.5382854 232.817627,25.122973 C231.776875,25.7076606 230.52599,26 229.064934,26 C226.843329,26 225.107101,25.3162231 223.856197,23.9486486 C222.605294,22.5810742 221.979851,20.6883004 221.979851,18.2702703 C221.979851,15.8522402 222.585279,13.9594663 223.796154,12.5918919 C225.007029,11.2243175 226.703229,10.5405405 228.884805,10.5405405 C230.92628,10.5405405 232.527413,11.2144077 233.688252,12.5621622 C234.84909,13.9099166 235.429501,15.6936826 235.429501,17.9135135 Z M228.884805,11.8486486 C227.263634,11.8486486 225.982728,12.3490941 225.042048,13.35 C224.101368,14.3509059 223.570993,15.7531441 223.450906,17.5567568 L234.018489,17.5567568 C233.918416,15.7729641 233.423066,14.3756807 232.532422,13.3648649 C231.641779,12.354049 230.425919,11.8486486 228.884805,11.8486486 Z M247.027823,10.5405405 C247.828401,10.5405405 248.458847,10.7090073 248.91918,11.0459459 L248.5289,12.4432432 C248.068567,12.0864847 247.428114,11.9081081 246.607521,11.9081081 C245.846972,11.9081081 245.131465,12.1409887 244.460981,12.6067568 C243.790497,13.0725249 243.250114,13.7265724 242.839818,14.5689189 C242.429521,15.4112655 242.224376,16.3477426 242.224376,17.3783784 L242.224376,25.7027027 L240.723299,25.7027027 L240.723299,10.8378378 L241.984204,10.8378378 L242.164333,13.8702703 C242.584637,12.8198146 243.210079,12.0022552 244.040679,11.4175676 C244.87128,10.83288 245.866984,10.5405405 247.027823,10.5405405 Z M257.96567,26 C256.444571,26 255.123637,25.7027057 254.002827,25.1081081 C252.882017,24.5135105 252.111472,23.651357 251.691169,22.5216216 L252.922052,21.7189189 C253.222269,22.7099149 253.8327,23.4531507 254.753366,23.9486486 C255.674031,24.4441466 256.804831,24.6918919 258.1458,24.6918919 C259.506783,24.6918919 260.572537,24.4342368 261.343094,23.9189189 C262.11365,23.403601 262.498923,22.7198241 262.498923,21.8675676 C262.498923,21.1342306 262.168689,20.5495517 261.508212,20.1135135 C260.847735,19.6774753 259.686914,19.3108123 258.025714,19.0135135 C255.924195,18.6369351 254.443147,18.1315347 253.582526,17.4972973 C252.721904,16.8630599 252.291599,15.9612671 252.291599,14.7918919 C252.291599,14.0189151 252.531769,13.3054087 253.012116,12.6513514 C253.492463,11.997294 254.172945,11.4819839 255.053581,11.1054054 C255.934217,10.7288269 256.934925,10.5405405 258.055735,10.5405405 C259.636877,10.5405405 260.902773,10.8378349 261.85346,11.4324324 C262.804147,12.02703 263.45961,12.9387326 263.819871,14.1675676 L262.528945,14.9108108 C261.96854,12.8693592 260.477485,11.8486486 258.055735,11.8486486 C257.255157,11.8486486 256.529643,11.9774762 255.879173,12.2351351 C255.228703,12.4927941 254.718342,12.8346826 254.348075,13.2608108 C253.977807,13.6869391 253.792676,14.1477453 253.792676,14.6432432 C253.792676,15.4558599 254.132917,16.0900878 254.813409,16.5459459 C255.4939,17.0018041 256.69475,17.3783769 258.415994,17.6756757 C260.457468,18.0126143 261.898488,18.498195 262.739095,19.1324324 C263.579703,19.7666698 264,20.6585528 264,21.8081081 C264,23.0765829 263.454614,24.0923385 262.363826,24.8554054 C261.273038,25.6184723 259.807001,26 257.96567,26 Z"></path><use fill="#FF5740" xlink:href="#logo-a"></use><polygon id="logo-star" fill="#FFF" fill-rule="nonzero" points="18.561 16.787 23.927 15.418 18.52 14.223 20.558 10.27 16.677 12.439 15.307 7.073 14.112 12.48 10.06 10.325 12.328 14.323 6.962 15.693 12.37 16.888 10.306 20.829 14.213 18.672 15.582 24.037 16.777 18.63 20.745 20.739" mask="url(#logo-b)"></polygon></g></svg> 