<svg xmlns="http://www.w3.org/2000/svg" width="25" height="29" viewBox="0 0 25 29"><defs><filter id="a" width="200%" height="200%" x="-50%" y="-50%"><feMorphology in="SourceGraphic" operator="dilate" result="SvgjsFeMorphology1010Out"/><feOffset dy="1" in="SvgjsFeMorphology1010Out" result="SvgjsFeOffset1011Out"/><feGaussianBlur in="SvgjsFeOffset1011Out" result="SvgjsFeGaussianBlur1012Out" stdDeviation="1"/><feComposite in="SvgjsFeGaussianBlur1012Out" in2="SourceAlpha" operator="out" result="SvgjsFeComposite1013Out"/></filter></defs><path fill="#1e2f43" fill-opacity=".15" d="M399.46 2759v6.5a.5.5 0 0 1-.5.5.5.5 0 0 1-.5-.5v-9.5h-3v8.5a.5.5 0 0 1-.5.5.5.5 0 0 1-.5-.5v-9.5h-3v9.5a.5.5 0 0 1-.5.5.5.5 0 0 1-.5-.5v-7.5h-3v12.5l-2.02-2.77c-.6-.93-1.77-1.24-2.63-.71-.85.55-1.07 1.73-.47 2.65l4.65 7.06c1.4 2.12 3.65 3.77 7.87 3.77 6.98 0 7.6-5.39 7.6-7V2759z" filter="url(#a)" transform="translate(-380 -2754)"/><path fill="#fff" d="M19.46 5v6.5a.5.5 0 0 1-.5.5.5.5 0 0 1-.5-.5V2h-3v8.5a.5.5 0 0 1-.5.5.5.5 0 0 1-.5-.5V1h-3v9.5a.5.5 0 0 1-.5.5.5.5 0 0 1-.5-.5V3h-3v12.5l-2.02-2.77c-.6-.93-1.77-1.24-2.63-.71-.85.55-1.07 1.73-.47 2.65l4.65 7.06c1.4 2.12 3.65 3.77 7.87 3.77 6.98 0 7.6-5.39 7.6-7V5z"/></svg>