<svg xmlns="http://www.w3.org/2000/svg" width="16" height="28.5" viewBox="0 0 16 28.5"><defs><filter id="a" width="200%" height="200%" x="-50%" y="-50%"><feMorphology in="SourceGraphic" operator="dilate" result="SvgjsFeMorphology1010Out"/><feOffset dy="1" in="SvgjsFeMorphology1010Out" result="SvgjsFeOffset1011Out"/><feGaussianBlur in="SvgjsFeOffset1011Out" result="SvgjsFeGaussianBlur1012Out" stdDeviation="1"/><feComposite in="SvgjsFeGaussianBlur1012Out" in2="SourceAlpha" operator="out" result="SvgjsFeComposite1013Out"/></filter><filter id="b" width="200%" height="200%" x="-50%" y="-50%"><feMorphology in="SourceGraphic" operator="dilate" result="SvgjsFeMorphology1017Out"/><feOffset dy="1" in="SvgjsFeMorphology1017Out" result="SvgjsFeOffset1018Out"/><feGaussianBlur in="SvgjsFeOffset1018Out" result="SvgjsFeGaussianBlur1019Out" stdDeviation="1"/><feComposite in="SvgjsFeGaussianBlur1019Out" in2="SourceAlpha" operator="out" result="SvgjsFeComposite1020Out"/></filter></defs><path fill="#1e2f43" fill-opacity=".15" d="M359.06 22163.55h4.23a1 1 0 0 0 .74-.33c.21-.22.31-.48.31-.78v-3.33c0-.3-.1-.56-.31-.78a1 1 0 0 0-.74-.33h-4.23a1 1 0 0 0-.75.33c-.21.22-.31.48-.31.78v3.33c0 .3.1.56.31.78a1 1 0 0 0 .75.33z" filter="url(#a)" transform="translate(-353.5 -22156.5)"/><path fill="#fff" d="M5.56 7.05h4.23a1 1 0 0 0 .74-.33c.21-.22.31-.48.31-.78V2.61c0-.3-.1-.56-.31-.78a1 1 0 0 0-.74-.33H5.56a1 1 0 0 0-.75.33c-.21.22-.31.48-.31.78v3.33c0 .3.1.56.31.78a1 1 0 0 0 .75.33z"/><path fill="#1e2f43" fill-opacity=".15" d="M366 22177.5a.98.98 0 0 0-.72-.3h-1.03v-9.18c0-.28-.1-.52-.31-.72a.98.98 0 0 0-.72-.3h-6.19c-.28 0-.52.1-.72.3a.95.95 0 0 0-.31.72v2.04c0 .28.1.51.31.72.2.2.44.3.72.3h1.03v6.12h-1.03c-.28 0-.52.1-.72.3a.95.95 0 0 0-.31.72v2.04c0 .27.1.51.31.71.2.2.44.31.72.31h8.25a1 1 0 0 0 .72-.31c.21-.2.31-.44.31-.71v-2.04c0-.28-.1-.52-.31-.72z" filter="url(#b)" transform="translate(-353.5 -22156.5)"/><path fill="#fff" d="M12.5 21a.98.98 0 0 0-.72-.3h-1.03v-9.18c0-.28-.1-.52-.31-.72a.98.98 0 0 0-.72-.3H3.53c-.28 0-.52.1-.72.3a.95.95 0 0 0-.31.72v2.04c0 .28.1.51.31.72.2.2.44.3.72.3h1.03v6.12H3.53c-.28 0-.52.1-.72.3a.95.95 0 0 0-.31.72v2.04c0 .27.1.51.31.71.2.2.44.31.72.31h8.25a1 1 0 0 0 .72-.31c.21-.2.31-.44.31-.71v-2.04c0-.28-.1-.52-.31-.72z"/></svg>