<svg xmlns="http://www.w3.org/2000/svg" width="29" height="24" viewBox="0 0 29 24"><defs><filter id="a" width="200%" height="200%" x="-50%" y="-50%"><feMorphology in="SourceGraphic" operator="dilate" result="SvgjsFeMorphology1010Out"/><feOffset dy="1" in="SvgjsFeMorphology1010Out" result="SvgjsFeOffset1011Out"/><feGaussianBlur in="SvgjsFeOffset1011Out" result="SvgjsFeGaussianBlur1012Out" stdDeviation="1"/><feComposite in="SvgjsFeGaussianBlur1012Out" in2="SourceAlpha" operator="out" result="SvgjsFeComposite1013Out"/></filter></defs><path fill="#1e2f43" fill-opacity=".15" d="M349.29 22296.58c-.19-.2-.29-.48-.29-.68 0-.19.1-.48.29-.67l1.34-1.35a.94.94 0 0 1 1.35 0l.1.1 5.29 5.67c.19.2.48.2.67 0l12.88-13.36h.1a.93.93 0 0 1 1.35 0l1.34 1.34c.39.39.39.97 0 1.35l-15.38 15.96a.9.9 0 0 1-.68.29.88.88 0 0 1-.67-.29l-7.5-8.07z" filter="url(#a)" transform="translate(-347.5 -22284.5)"/><path fill="#fff" d="M1.79 12.08c-.19-.2-.29-.48-.29-.68 0-.19.1-.48.29-.67l1.34-1.35a.94.94 0 0 1 1.35 0l.1.1 5.29 5.67c.19.2.48.2.67 0L23.42 1.79h.1a.93.93 0 0 1 1.35 0l1.34 1.34c.39.39.39.97 0 1.35L10.83 20.44a.9.9 0 0 1-.68.29.88.88 0 0 1-.67-.29l-7.5-8.07z"/></svg>