<svg xmlns="http://www.w3.org/2000/svg" width="57" height="49"><g fill="#FFF"><path d="M54.09 9.731c-1.466-1.47-3.234-2.205-5.306-2.205h-6.567l-1.495-3.998c-.371-.96-1.05-1.788-2.038-2.484C37.697.348 36.686 0 35.65 0H20.64c-1.037 0-2.048.348-3.035 1.044-.987.696-1.666 1.524-2.038 2.484l-1.495 3.998H7.505c-2.072 0-3.84.736-5.306 2.205C.733 11.201 0 12.975 0 15.053v26.341c0 2.078.733 3.852 2.199 5.321 1.466 1.47 3.234 2.206 5.306 2.206h41.278c2.072 0 3.84-.736 5.307-2.206 1.465-1.47 2.198-3.243 2.198-5.32V15.052c0-2.078-.732-3.852-2.198-5.322zM37.423 37.53c-2.57 2.577-5.663 3.866-9.279 3.866-3.616 0-6.708-1.289-9.279-3.866-2.57-2.577-3.855-5.68-3.855-9.305 0-3.626 1.286-6.727 3.855-9.305 2.57-2.577 5.663-3.866 9.28-3.866 3.615 0 6.708 1.289 9.278 3.866 2.57 2.577 3.855 5.679 3.855 9.305 0 3.626-1.285 6.727-3.855 9.305z"/><path d="M28.144 19.568c-2.36 0-4.377.838-6.052 2.512-1.676 1.675-2.513 3.691-2.513 6.05 0 2.358.837 4.374 2.513 6.049 1.675 1.674 3.692 2.511 6.052 2.511 2.36 0 4.377-.837 6.052-2.511 1.676-1.675 2.514-3.691 2.514-6.05 0-2.358-.838-4.374-2.514-6.049-1.675-1.674-3.693-2.512-6.052-2.512z"/></g></svg>