<svg width="46" height="46" viewBox="0 0 46 46" xmlns="http://www.w3.org/2000/svg" xmlns:xlink="http://www.w3.org/1999/xlink"><defs><path d="M-2 11h24c.5 0 1-.4 1-1s-.5-1-1-1H-2c-.5 0-1 .4-1 1s.5 1 1 1z" id="b"/><filter x="-86.5%" y="-1125%" width="273.1%" height="2350%" filterUnits="objectBoundingBox" id="a"><feOffset in="SourceAlpha" result="shadowOffsetOuter1"/><feGaussianBlur stdDeviation="7.5" in="shadowOffsetOuter1" result="shadowBlurOuter1"/><feColorMatrix values="0 0 0 0 0.117647059 0 0 0 0 0.184313725 0 0 0 0 0.262745098 0 0 0 0.15 0" in="shadowBlurOuter1"/></filter><path d="M23 10c0-.6-.5-1-1-1H-2c-.5 0-1 .4-1 1s.5 1 1 1h24c.5 0 1-.4 1-1z" id="d"/><filter x="-86.5%" y="-1125%" width="273.1%" height="2350%" filterUnits="objectBoundingBox" id="c"><feOffset in="SourceAlpha" result="shadowOffsetOuter1"/><feGaussianBlur stdDeviation="7.5" in="shadowOffsetOuter1" result="shadowBlurOuter1"/><feColorMatrix values="0 0 0 0 0.117647059 0 0 0 0 0.184313725 0 0 0 0 0.262745098 0 0 0 0.15 0" in="shadowBlurOuter1"/></filter></defs><g fill-rule="nonzero" fill="none"><g transform="rotate(45 .808 32.192)"><use fill="#000" filter="url(#a)" xlink:href="#b"/><use fill="#FFF" fill-rule="evenodd" xlink:href="#b"/></g><g transform="rotate(-45 32.192 .808)"><use fill="#000" filter="url(#c)" xlink:href="#d"/><use fill="#FFF" fill-rule="evenodd" xlink:href="#d"/></g></g></svg>