<svg class="dropdown-icon" xmlns="http://www.w3.org/2000/svg" width="17" height="17" viewBox="0 0 17 17"><defs><linearGradient id="a" x1="338.5" x2="338.5" y1="238.18" y2="257" gradientUnits="userSpaceOnUse"><stop offset="0" stop-color="#4edce9"/><stop offset=".2" stop-color="#50e1df"/><stop offset=".4" stop-color="#50e7d5"/><stop offset=".6" stop-color="#50eccb"/><stop offset=".8" stop-color="#4ef2c1"/><stop offset="1" stop-color="#4af7b7"/></linearGradient></defs><path fill="url(#a)" d="M346.47 246.38h-5.85v-5.85a.53.53 0 0 0-.53-.53h-3.18c-.3 0-.54.24-.54.53v5.85h-5.84a.53.53 0 0 0-.53.53v3.18c0 .3.24.53.53.53h5.84v5.85c0 .29.24.53.54.53h3.18c.3 0 .54-.24.54-.53v-5.85h5.84c.29 0 .53-.23.53-.53v-3.18c0-.3-.24-.53-.53-.53z" transform="translate(-330 -240)"/></svg>