<svg xmlns="http://www.w3.org/2000/svg" width="57" height="56" viewBox="0 0 57 56"><defs><radialGradient id="a" cx="47" cy="26.01" r="61.99" gradientUnits="userSpaceOnUse"><stop offset="0" stop-color="#4edce9"/><stop offset=".2" stop-color="#50e1df"/><stop offset=".4" stop-color="#50e7d5"/><stop offset=".6" stop-color="#50eccb"/><stop offset=".8" stop-color="#4ef2c1"/><stop offset="1" stop-color="#4af7b7"/></radialGradient><filter id="b" width="200%" height="200%" x="-50%" y="-50%"><feMorphology in="SourceGraphic" operator="dilate" result="SvgjsFeMorphology1018Out"/><feOffset in="SvgjsFeMorphology1018Out" result="SvgjsFeOffset1019Out"/><feGaussianBlur in="SvgjsFeOffset1019Out" result="SvgjsFeGaussianBlur1020Out" stdDeviation="7.5"/><feComposite in="SvgjsFeGaussianBlur1020Out" in2="SourceAlpha" operator="out" result="SvgjsFeComposite1021Out"/></filter><filter id="c" width="200%" height="200%" x="-50%" y="-50%"><feMorphology in="SourceGraphic" operator="dilate" result="SvgjsFeMorphology1025Out"/><feOffset in="SvgjsFeMorphology1025Out" result="SvgjsFeOffset1026Out"/><feGaussianBlur in="SvgjsFeOffset1026Out" result="SvgjsFeGaussianBlur1027Out" stdDeviation="7.5"/><feComposite in="SvgjsFeGaussianBlur1027Out" in2="SourceAlpha" operator="out" result="SvgjsFeComposite1028Out"/></filter><filter id="d" width="200%" height="200%" x="-50%" y="-50%"><feMorphology in="SourceGraphic" operator="dilate" result="SvgjsFeMorphology1032Out"/><feOffset in="SvgjsFeMorphology1032Out" result="SvgjsFeOffset1033Out"/><feGaussianBlur in="SvgjsFeOffset1033Out" result="SvgjsFeGaussianBlur1034Out" stdDeviation="7.5"/><feComposite in="SvgjsFeGaussianBlur1034Out" in2="SourceAlpha" operator="out" result="SvgjsFeComposite1035Out"/></filter></defs><path fill="url(#a)" d="M47 32c-15.44 0-28 12.56-28 28a28.1 28.1 0 0 0 8.99 20.56 1.14 1.14 0 1 0 1.55-1.67A25.81 25.81 0 0 1 21.28 60 25.75 25.75 0 0 1 47 34.28 25.75 25.75 0 0 1 72.72 60 25.75 25.75 0 0 1 47 85.72 1.14 1.14 0 1 0 47 88c15.44 0 28-12.56 28-28S62.44 32 47 32z" transform="translate(-18.5 -32)"/><path fill="#1e2f43" fill-opacity=".15" d="M35.13 49h23.74c.63 0 1.13-.45 1.13-1s-.5-1-1.13-1H35.13c-.63 0-1.13.45-1.13 1s.5 1 1.13 1z" filter="url(#b)" transform="translate(-18.5 -32)"/><path fill="#fff" d="M16.63 17h23.74c.63 0 1.13-.45 1.13-1s-.5-1-1.13-1H16.63c-.63 0-1.13.45-1.13 1s.5 1 1.13 1z"/><path fill="#1e2f43" fill-opacity=".15" d="M35.13 61h23.74c.63 0 1.13-.45 1.13-1s-.5-1-1.13-1H35.13c-.63 0-1.13.45-1.13 1s.5 1 1.13 1z" filter="url(#c)" transform="translate(-18.5 -32)"/><path fill="#fff" d="M16.63 29h23.74c.63 0 1.13-.45 1.13-1s-.5-1-1.13-1H16.63c-.63 0-1.13.45-1.13 1s.5 1 1.13 1z"/><path fill="#1e2f43" fill-opacity=".15" d="M60 72c0-.55-.5-1-1.13-1H35.13c-.63 0-1.13.45-1.13 1s.5 1 1.13 1h23.74c.63 0 1.13-.45 1.13-1z" filter="url(#d)" transform="translate(-18.5 -32)"/><path fill="#fff" d="M41.5 40c0-.55-.5-1-1.13-1H16.63c-.63 0-1.13.45-1.13 1s.5 1 1.13 1h23.74c.63 0 1.13-.45 1.13-1z"/></svg>