<svg width="17" height="13" viewBox="0 0 17 13" xmlns="http://www.w3.org/2000/svg"><path d="M15.5 13h-14c-.4 0-.7 0-1-.4L5.3 8c.2 0 .3 0 .4.2l1 .6.7.4 1 .3c.4 0 .8 0 1.2-.3.3 0 .6-.3.8-.4l1-.6s0-.2.3-.3l4.8 4.6c-.3.3-.6.4-1 .4zM1 5l3.2 2.2-4.2 4v-7L1 5zm15 0l1-.8v7l-4.2-4L16 5zm-.5-5c.4 0 .7 0 1 .4.3.3.5.7.5 1 0 .6-.2 1-.5 1.5l-1 1c-1.7 1-2.8 1.8-3.6 2.4L11 7h-.2c0 .2-.2.2-.3.3-.2 0-.3.3-.5.3l-.5.3c-.2 0-.3 0-.5.2H8c-.2 0-.3 0-.5-.3L7 7.5c-.2 0-.3-.2-.5-.3 0 0-.2 0-.3-.2l-1-.6-1.6-1-2-1.4-1-1C0 2.4 0 2 0 1.6 0 1.2 0 .7.4.5.7.2 1 0 1.4 0h14z" fill="#FFF" fill-rule="evenodd"/></svg>