<svg xmlns="http://www.w3.org/2000/svg" width="21" height="22" viewBox="0 0 21 22"><path fill="#404040" d="M20.713 18.158l-4.09-4.09a.984.984 0 00-.697-.287h-.668a8.49 8.49 0 001.805-5.25A8.53 8.53 0 008.53 0 8.53 8.53 0 000 8.531a8.53 8.53 0 008.531 8.531 8.49 8.49 0 005.25-1.804v.668c0 .263.103.513.287.698l4.09 4.089a.98.98 0 001.39 0l1.16-1.16a.989.989 0 00.005-1.395zM8.53 13.78c-2.9 0-5.25-2.346-5.25-5.25 0-2.9 2.346-5.25 5.25-5.25 2.9 0 5.25 2.346 5.25 5.25 0 2.9-2.346 5.25-5.25 5.25z"></path></svg>