<svg width="62" height="63" viewBox="0 0 62 63" xmlns="http://www.w3.org/2000/svg" xmlns:xlink="http://www.w3.org/1999/xlink"><defs><path d="M19.7 24.4l-2.3 2.3L25 34l16.4-16.4-2.4-2.3-14 14.2-5.3-5zm20 3c0 7.4-6 13.3-13.2 13.3-7.3 0-13.2-6-13.2-13.2 0-7.3 6-13.2 13.2-13.2 1.3 0 2.5.2 3.6.5l2.8-2.6c-2-.7-4.2-1.2-6.3-1.2-9 0-16.5 7.4-16.5 16.5 0 9 7.4 16.5 16.5 16.5 9 0 16.5-7.4 16.5-16.5h-3.3z" id="b"/><filter x="-68.2%" y="-68.2%" width="236.4%" height="236.4%" filterUnits="objectBoundingBox" id="a"><feOffset in="SourceAlpha" result="shadowOffsetOuter1"/><feGaussianBlur stdDeviation="7.5" in="shadowOffsetOuter1" result="shadowBlurOuter1"/><feColorMatrix values="0 0 0 0 0.117647059 0 0 0 0 0.184313725 0 0 0 0 0.262745098 0 0 0 0.15 0" in="shadowBlurOuter1"/></filter></defs><g transform="translate(5 4)" fill-rule="nonzero" fill="none"><use fill="#000" filter="url(#a)" xlink:href="#b"/><use fill="#FFF" fill-rule="evenodd" xlink:href="#b"/></g></svg>